HIERARCHY
ROOT Hips
{
    OFFSET 0.000000 0.000000 0.000000
    CHANNELS 6 Xposition Yposition Zposition Zrotation Xrotation Yrotation
    JOINT Spine
    {
        OFFSET -0.000000 7.305679 0.000000
        CHANNELS 3 Zrotation Xrotation Yrotation
        JOINT Spine1
        {
            OFFSET -0.000000 20.356625 0.000000
            CHANNELS 3 Zrotation Xrotation Yrotation
            JOINT Neck
            {
                OFFSET -0.000000 22.138498 0.000000
                CHANNELS 3 Zrotation Xrotation Yrotation
                JOINT Head
                {
                    OFFSET -0.000000 13.809516 1.781873
                    CHANNELS 3 Zrotation Xrotation Yrotation
                    End Site
                    {
                        OFFSET -0.000000 17.818729 0.000000
                    }
                }
            }
            JOINT LeftShoulder
            {
                OFFSET 3.599131 17.989975 0.023592
                CHANNELS 3 Zrotation Xrotation Yrotation
                JOINT LeftArm
                {
                    OFFSET 12.560995 0.000000 0.000000
                    CHANNELS 3 Zrotation Xrotation Yrotation
                    JOINT LeftForeArm
                    {
                        OFFSET 22.903347 0.000000 0.000000
                        CHANNELS 3 Zrotation Xrotation Yrotation
                        JOINT LeftHand
                        {
                            OFFSET 21.865294 0.000000 0.000000
                            CHANNELS 3 Zrotation Xrotation Yrotation
                            JOINT LeftHandThumb1
                            {
                                OFFSET 1.853706 -2.106484 2.949078
                                CHANNELS 3 Zrotation Xrotation Yrotation
                                JOINT LeftHandThumb2
                                {
                                    OFFSET 2.049154 0.000000 1.336405
                                    CHANNELS 3 Zrotation Xrotation Yrotation
                                    JOINT LeftHandThumb3
                                    {
                                        OFFSET 2.672809 0.000000 0.000000
                                        CHANNELS 3 Zrotation Xrotation Yrotation
                                        End Site
                                        {
                                            OFFSET 2.381303 0.000000 0.000000
                                        }
                                    }
                                }
                            }
                            JOINT LeftHandIndex1
                            {
                                OFFSET 7.583345 0.000000 2.949078
                                CHANNELS 3 Zrotation Xrotation Yrotation
                                JOINT LeftHandIndex2
                                {
                                    OFFSET 4.454682 0.000000 0.000000
                                    CHANNELS 3 Zrotation Xrotation Yrotation
                                    JOINT LeftHandIndex3
                                    {
                                        OFFSET 2.227341 0.000000 0.000000
                                        CHANNELS 3 Zrotation Xrotation Yrotation
                                        End Site
                                        {
                                            OFFSET 1.984419 0.000000 0.000000
                                        }
                                    }
                                }
                            }
                            JOINT LeftHandMiddle1
                            {
                                OFFSET 7.583345 0.000000 0.977409
                                CHANNELS 3 Zrotation Xrotation Yrotation
                                JOINT LeftHandMiddle2
                                {
                                    OFFSET 4.900151 0.000000 0.000000
                                    CHANNELS 3 Zrotation Xrotation Yrotation
                                    JOINT LeftHandMiddle3
                                    {
                                        OFFSET 2.672809 0.000000 0.000000
                                        CHANNELS 3 Zrotation Xrotation Yrotation
                                        End Site
                                        {
                                            OFFSET 2.381303 0.000000 0.000000
                                        }
                                    }
                                }
                            }
                            JOINT LeftHandRing1
                            {
                                OFFSET 7.162047 0.000000 -0.977409
                                CHANNELS 3 Zrotation Xrotation Yrotation
                                JOINT LeftHandRing2
                                {
                                    OFFSET 4.454682 0.000000 0.000000
                                    CHANNELS 3 Zrotation Xrotation Yrotation
                                    JOINT LeftHandRing3
                                    {
                                        OFFSET 2.227341 0.000000 0.000000
                                        CHANNELS 3 Zrotation Xrotation Yrotation
                                        End Site
                                        {
                                            OFFSET 1.984419 0.000000 0.000000
                                        }
                                    }
                                }
                            }
                            JOINT LeftHandPinky1
                            {
                                OFFSET 6.740750 0.000000 -2.949078
                                CHANNELS 3 Zrotation Xrotation Yrotation
                                JOINT LeftHandPinky2
                                {
                                    OFFSET 3.563746 0.000000 0.000000
                                    CHANNELS 3 Zrotation Xrotation Yrotation
                                    JOINT LeftHandPinky3
                                    {
                                        OFFSET 1.781873 0.000000 0.000000
                                        CHANNELS 3 Zrotation Xrotation Yrotation
                                        End Site
                                        {
                                            OFFSET 1.587536 0.000000 0.000000
                                        }
                                    }
                                }
                            }
                        }
                    }
                }
            }
            JOINT RightShoulder
            {
                OFFSET -3.506995 17.989975 0.023592
                CHANNELS 3 Zrotation Xrotation Yrotation
                JOINT RightArm
                {
                    OFFSET -12.560995 0.000000 0.000000
                    CHANNELS 3 Zrotation Xrotation Yrotation
                    JOINT RightForeArm
                    {
                        OFFSET -22.903347 0.000000 0.000000
                        CHANNELS 3 Zrotation Xrotation Yrotation
                        JOINT RightHand
                        {
                            OFFSET -21.865294 0.000000 0.000000
                            CHANNELS 3 Zrotation Xrotation Yrotation
                            JOINT RightHandThumb1
                            {
                                OFFSET -1.853706 -2.106484 2.949078
                                CHANNELS 3 Zrotation Xrotation Yrotation
                                JOINT RightHandThumb2
                                {
                                    OFFSET -2.049154 0.000000 1.336405
                                    CHANNELS 3 Zrotation Xrotation Yrotation
                                    JOINT RightHandThumb3
                                    {
                                        OFFSET -2.672809 0.000000 0.000000
                                        CHANNELS 3 Zrotation Xrotation Yrotation
                                        End Site
                                        {
                                            OFFSET -2.381303 0.000000 0.000000
                                        }
                                    }
                                }
                            }
                            JOINT RightHandIndex1
                            {
                                OFFSET -7.583345 0.000000 2.949078
                                CHANNELS 3 Zrotation Xrotation Yrotation
                                JOINT RightHandIndex2
                                {
                                    OFFSET -4.454682 0.000000 0.000000
                                    CHANNELS 3 Zrotation Xrotation Yrotation
                                    JOINT RightHandIndex3
                                    {
                                        OFFSET -2.227341 0.000000 0.000000
                                        CHANNELS 3 Zrotation Xrotation Yrotation
                                        End Site
                                        {
                                            OFFSET -1.984419 0.000000 0.000000
                                        }
                                    }
                                }
                            }
                            JOINT RightHandMiddle1
                            {
                                OFFSET -7.583345 0.000000 0.977409
                                CHANNELS 3 Zrotation Xrotation Yrotation
                                JOINT RightHandMiddle2
                                {
                                    OFFSET -4.900151 0.000000 0.000000
                                    CHANNELS 3 Zrotation Xrotation Yrotation
                                    JOINT RightHandMiddle3
                                    {
                                        OFFSET -2.672809 0.000000 0.000000
                                        CHANNELS 3 Zrotation Xrotation Yrotation
                                        End Site
                                        {
                                            OFFSET -2.381303 0.000000 0.000000
                                        }
                                    }
                                }
                            }
                            JOINT RightHandRing1
                            {
                                OFFSET -7.162047 0.000000 -0.977409
                                CHANNELS 3 Zrotation Xrotation Yrotation
                                JOINT RightHandRing2
                                {
                                    OFFSET -4.454682 0.000000 0.000000
                                    CHANNELS 3 Zrotation Xrotation Yrotation
                                    JOINT RightHandRing3
                                    {
                                        OFFSET -2.227341 0.000000 0.000000
                                        CHANNELS 3 Zrotation Xrotation Yrotation
                                        End Site
                                        {
                                            OFFSET -1.984419 0.000000 0.000000
                                        }
                                    }
                                }
                            }
                            JOINT RightHandPinky1
                            {
                                OFFSET -6.740750 0.000000 -2.949078
                                CHANNELS 3 Zrotation Xrotation Yrotation
                                JOINT RightHandPinky2
                                {
                                    OFFSET -3.563746 0.000000 0.000000
                                    CHANNELS 3 Zrotation Xrotation Yrotation
                                    JOINT RightHandPinky3
                                    {
                                        OFFSET -1.781873 0.000000 0.000000
                                        CHANNELS 3 Zrotation Xrotation Yrotation
                                        End Site
                                        {
                                            OFFSET -1.587536 0.000000 0.000000
                                        }
                                    }
                                }
                            }
                        }
                    }
                }
            }
        }
    }
    JOINT LeftUpLeg
    {
        OFFSET 8.909365 0.000000 0.000000
        CHANNELS 3 Zrotation Xrotation Yrotation
        JOINT LeftLeg
        {
            OFFSET -0.000000 -38.765560 0.000000
            CHANNELS 3 Zrotation Xrotation Yrotation
            JOINT LeftFoot
            {
                OFFSET -0.000000 -35.244961 0.000000
                CHANNELS 3 Zrotation Xrotation Yrotation
                JOINT LeftToeBase
                {
                    OFFSET -0.000000 -5.791087 13.364048
                    CHANNELS 3 Zrotation Xrotation Yrotation
                    End Site
                    {
                        OFFSET -0.000000 0.000000 3.563746
                    }
                }
            }
        }
    }
    JOINT RightUpLeg
    {
        OFFSET -8.909365 0.000000 0.000000
        CHANNELS 3 Zrotation Xrotation Yrotation
        JOINT RightLeg
        {
            OFFSET -0.000000 -38.765560 0.000000
            CHANNELS 3 Zrotation Xrotation Yrotation
            JOINT RightFoot
            {
                OFFSET -0.000000 -35.244961 0.000000
                CHANNELS 3 Zrotation Xrotation Yrotation
                JOINT RightToeBase
                {
                    OFFSET -0.000000 -5.791087 13.364048
                    CHANNELS 3 Zrotation Xrotation Yrotation
                    End Site
                    {
                        OFFSET -0.000000 0.000000 3.563746
                    }
                }
            }
        }
    }
}
MOTION
Frames:    4
Frame Time:    0.008333
5.822161    81.098923    109.714417    0.490002    -0.119691    -3.148499    -1.122965    -2.439569    -1.565467    -0.492905    2.667295    -0.502436    3.013504    -7.231854    -1.995915    0.028957    4.565519    -1.860171    2.661208    4.071534    -11.041794    -89.129524    26.715746    -1.735989    8.711057    -5.817318    2.744350    0.596526    -28.485531    11.112366    -1.134560    1.171111    -0.002879    -0.000000    0.000000    0.256069    -0.000000    0.000000    0.512138    -4.704556    0.729526    -8.794799    -9.521315    0.000000    0.000000    -4.760656    0.000000    0.000000    -18.261684    -2.232882    -0.409761    -36.650402    0.000000    0.000000    -18.325201    0.000000    0.000000    -31.320761    -7.047674    7.092046    -63.779488    0.000000    0.000000    -31.889738    0.000000    0.000000    -44.235931    -13.612530    13.588716    -91.730659    0.000000    0.000000    -45.865330    0.000000    0.000000    -4.246005    -2.976113    0.613962    97.258904    50.481400    -9.492401    -10.979609    -33.854164    0.081068    7.322863    -41.243782    -6.992732    0.970353    -1.212888    2.563224    0.000000    0.000000    0.000000    0.000000    0.000000    0.000000    14.546044    0.000000    -0.000000    29.092089    0.000000    -0.000000    14.546044    0.000000    -0.000000    20.261400    -0.996302    -2.033602    40.570332    0.000000    -0.000000    20.285164    0.000000    -0.000000    25.940899    -2.189572    -3.958917    52.048584    0.000000    -0.000000    26.024292    0.000000    -0.000000    31.753969    -3.611333    -5.811075    63.874634    0.000000    -0.000000    31.937317    0.000000    -0.000000    -1.254195    2.939340    1.768933    0.618560    -2.076041    11.661826    -1.485915    -0.425229    -8.546705    0.243670    -0.073990    -0.614041    -0.117855    4.050353    -1.779380    1.228233    -1.088885    -3.468738    -0.314408    -3.491613    6.590656    -0.228867    -1.528269    0.207189    
5.820883    81.099030    109.705246    0.493281    -0.132837    -3.114586    -1.115300    -2.440681    -1.570209    -0.488505    2.701828    -0.503994    2.963283    -7.231211    -2.038245    0.045630    4.384770    -1.910063    2.660802    4.057470    -11.057199    -89.117485    26.738493    -1.753565    8.724037    -5.817656    2.718514    0.584404    -28.472931    11.137104    -1.140365    1.173951    -0.006685    -0.000000    0.000000    0.254249    -0.000000    0.000000    0.508497    -4.752899    0.737583    -8.800964    -9.619321    0.000000    0.000000    -4.809660    0.000000    0.000000    -18.287851    -2.224555    -0.419421    -36.701580    0.000000    0.000000    -18.350792    0.000000    0.000000    -31.324974    -7.035400    7.080801    -63.783844    0.000000    0.000000    -31.891930    0.000000    0.000000    -44.217453    -13.593468    13.579174    -91.686790    0.000000    0.000000    -45.843395    0.000000    0.000000    -4.256414    -2.987632    0.622600    97.269890    50.501091    -9.502539    -10.980522    -33.880981    0.091122    7.321462    -41.258991    -6.996478    0.973468    -1.211759    2.563609    0.000000    0.000000    0.000000    0.000000    0.000000    0.000000    14.539898    0.000000    -0.000000    29.079792    0.000000    -0.000000    14.539898    0.000000    -0.000000    20.255150    -0.996303    -2.034172    40.557850    0.000000    -0.000000    20.278925    0.000000    -0.000000    25.934540    -2.189626    -3.960058    52.035908    0.000000    -0.000000    26.017950    0.000000    -0.000000    31.747473    -3.611496    -5.812799    63.861778    0.000000    -0.000000    31.930891    0.000000    -0.000000    -1.250894    2.938348    1.766491    0.608893    -2.068099    11.628542    -1.480570    -0.420104    -8.544220    0.243015    -0.072996    -0.612285    -0.118593    4.061334    -1.777808    1.227921    -1.091079    -3.486573    -0.316198    -3.490515    6.574151    -0.228380    -1.526050    0.206639    
5.819643    81.099281    109.695992    0.496693    -0.144939    -3.080844    -1.108019    -2.442445    -1.574621    -0.483728    2.735020    -0.505475    2.913257    -7.227849    -2.080487    0.063747    4.205216    -1.959998    2.660042    4.044079    -11.071062    -89.106102    26.759676    -1.770968    8.736294    -5.816903    2.692987    0.572000    -28.459846    11.160948    -1.144904    1.178573    -0.006729    -0.000000    0.000000    0.255271    -0.000000    0.000000    0.510543    -4.800778    0.744892    -8.799149    -9.716180    0.000000    0.000000    -4.858090    0.000000    0.000000    -18.314121    -2.217735    -0.423350    -36.753376    0.000000    0.000000    -18.376690    0.000000    0.000000    -31.329985    -7.024937    7.072878    -63.790585    0.000000    0.000000    -31.895298    0.000000    0.000000    -44.200771    -13.576054    13.570347    -91.647095    0.000000    0.000000    -45.823551    0.000000    0.000000    -4.266244    -2.997905    0.631086    97.280243    50.523624    -9.512523    -10.981977    -33.908619    0.101199    7.320869    -41.274269    -7.000148    0.978081    -1.212392    2.567812    0.000000    0.000000    0.000000    0.000000    0.000000    0.000000    14.532958    0.000000    -0.000000    29.065916    0.000000    -0.000000    14.532958    0.000000    -0.000000    20.248690    -0.996401    -2.034907    40.544979    0.000000    -0.000000    20.272486    0.000000    -0.000000    25.928551    -2.189911    -3.961504    52.024025    0.000000    -0.000000    26.012018    0.000000    -0.000000    31.741953    -3.612063    -5.814947    63.850941    0.000000    -0.000000    31.925468    0.000000    -0.000000    -1.247713    2.936792    1.762645    0.599315    -2.061221    11.597087    -1.476004    -0.414592    -8.542027    0.242620    -0.071902    -0.611159    -0.119140    4.070855    -1.777485    1.227058    -1.092585    -3.505877    -0.317307    -3.489660    6.560209    -0.227796    -1.524869    0.205830    
5.818445    81.099716    109.686592    0.500187    -0.155162    -3.047398    -1.101305    -2.445486    -1.578382    -0.478409    2.766166    -0.506851    2.864081    -7.220396    -2.122350    0.083941    4.028370    -2.009638    2.658772    4.032017    -11.081539    -89.095901    26.778625    -1.788577    8.747641    -5.814516    2.668402    0.559058    -28.445663    11.183217    -1.147014    1.185287    -0.001168    -0.000000    0.000000    0.260498    -0.000000    0.000000    0.520997    -4.848546    0.751113    -8.785039    -9.812487    0.000000    0.000000    -4.906243    0.000000    0.000000    -18.341103    -2.213447    -0.418142    -36.807243    0.000000    0.000000    -18.403624    0.000000    0.000000    -31.336647    -7.017802    7.070627    -63.802013    0.000000    0.000000    -31.901007    0.000000    0.000000    -44.187134    -13.562099    13.563382    -91.614777    0.000000    0.000000    -45.807388    0.000000    0.000000    -4.275673    -3.008165    0.638772    97.291885    50.549843    -9.524525    -10.984134    -33.936115    0.111305    7.321422    -41.288849    -7.003797    0.986174    -1.216369    2.579720    0.000000    0.000000    0.000000    0.000000    0.000000    0.000000    14.525526    0.000000    -0.000000    29.051054    0.000000    -0.000000    14.525526    0.000000    -0.000000    20.242664    -0.996687    -2.035902    40.532948    0.000000    -0.000000    20.266472    0.000000    -0.000000    25.923891    -2.190627    -3.963434    52.014835    0.000000    -0.000000    26.007420    0.000000    -0.000000    31.738668    -3.613360    -5.817758    63.844673    0.000000    -0.000000    31.922340    0.000000    -0.000000    -1.244906    2.934004    1.756760    0.590684    -2.055777    11.568979    -1.473451    -0.408614    -8.540887    0.242636    -0.070263    -0.610984    -0.119397    4.077874    -1.778892    1.225681    -1.093107    -3.527560    -0.317888    -3.489091    6.550212    -0.226985    -1.525944    0.204428    
